<?xml version="1.0" standalone="no"?>
<!DOCTYPE svg PUBLIC "-//W3C//DTD SVG 1.1//EN" "http://www.w3.org/Graphics/SVG/1.1/DTD/svg11.dtd" >
<svg xmlns="http://www.w3.org/2000/svg" xmlns:xlink="http://www.w3.org/1999/xlink" version="1.1">
<metadata>
Created by FontForge 20200427 at Thu Oct 27 16:42:32 2016
 By www
Typeface (c) (Tugcu Co). 2016. All Rights Reserved
</metadata>
<defs>
<font id="Aoki-Regular" horiz-adv-x="1436" >
  <font-face 
    font-family="Aoki Regular"
    font-weight="400"
    font-stretch="normal"
    units-per-em="2048"
    panose-1="2 0 5 0 0 0 0 0 0 0"
    ascent="1638"
    descent="-410"
    x-height="1428"
    cap-height="1435"
    bbox="120 -301 2219 2208"
    underline-thickness="150"
    underline-position="-292"
    unicode-range="U+001D-F002"
  />
<missing-glyph horiz-adv-x="1197" 
d="M324 872q35 35 35 85q0 99 70 169q71 70 169 70q99 0 170 -70q70 -70 70 -169t-70 -169q-71 -70 -170 -70q-49 0 -84 -35t-35 -85v-179q0 -50 35 -85t84 -35q50 0 85 35t35 85v75q156 40 257 168q102 130 102 295q0 198 -140 338q-141 140 -339 140q-197 0 -338 -140
q-140 -140 -140 -338q0 -50 35 -85t85 -35q49 0 84 35zM514 204q-35 -35 -35 -84q0 -50 35 -85t84 -35q50 0 85 35t35 85q0 49 -35 84t-85 35q-49 0 -84 -35z" />
    <glyph glyph-name=".notdef" horiz-adv-x="1197" 
d="M324 872q35 35 35 85q0 99 70 169q71 70 169 70q99 0 170 -70q70 -70 70 -169t-70 -169q-71 -70 -170 -70q-49 0 -84 -35t-35 -85v-179q0 -50 35 -85t84 -35q50 0 85 35t35 85v75q156 40 257 168q102 130 102 295q0 198 -140 338q-141 140 -339 140q-197 0 -338 -140
q-140 -140 -140 -338q0 -50 35 -85t85 -35q49 0 84 35zM514 204q-35 -35 -35 -84q0 -50 35 -85t84 -35q50 0 85 35t35 85q0 49 -35 84t-85 35q-49 0 -84 -35z" />
    <glyph glyph-name=".null" horiz-adv-x="0" 
 />
    <glyph glyph-name=".null" horiz-adv-x="0" 
 />
    <glyph glyph-name="nonmarkingreturn" horiz-adv-x="508" 
 />
    <glyph glyph-name="space" unicode=" " horiz-adv-x="508" 
 />
    <glyph glyph-name="space" unicode="&#xa0;" horiz-adv-x="508" 
 />
    <glyph glyph-name="exclam" unicode="!" horiz-adv-x="479" 
d="M324 35q35 35 35 85q0 49 -35 84t-84 35q-50 0 -85 -35t-35 -84q0 -50 35 -85t85 -35q49 0 84 35zM324 334q35 35 35 85v897q0 49 -35 84t-84 35q-50 0 -85 -35t-35 -84v-897q0 -50 35 -85t85 -35q49 0 84 35z" />
    <glyph glyph-name="quotedbl" unicode="&#x22;" horiz-adv-x="645" 
d="M273 1041q26 27 26 64v239q0 37 -26 63q-26 27 -63 27t-64 -27q-26 -26 -26 -63v-239q0 -37 26 -64q27 -26 64 -26t63 26zM498 1041q27 27 27 64v239q0 37 -27 63q-26 27 -63 27t-64 -27q-26 -26 -26 -63v-239q0 -37 26 -64q27 -26 64 -26t63 26z" />
    <glyph glyph-name="numbersign" unicode="#" horiz-adv-x="1496" 
d="M686 778h165l-41 -120h-166zM307 419l-91 -260q-16 -47 6 -91q21 -45 68 -61q19 -7 39 -7q85 0 113 80l119 339h165l-91 -260q-16 -47 5 -91q22 -45 68 -61q20 -7 40 -7q85 0 113 80l118 339h218q49 0 84 35t35 84q0 50 -35 85t-84 35h-134l42 120h151q50 0 85 35t35 84
q0 50 -35 85t-85 35h-67l91 259q16 47 -6 92q-21 44 -68 61q-47 16 -91 -5q-45 -22 -61 -69l-119 -338h-165l91 259q16 47 -5 92q-22 44 -69 61q-46 16 -91 -5q-45 -22 -61 -69l-118 -338h-218q-49 0 -84 -35t-35 -85q0 -49 35 -84t84 -35h134l-42 -120h-151q-50 0 -85 -35
t-35 -85q0 -49 35 -84t85 -35h67z" />
    <glyph glyph-name="dollar" unicode="$" horiz-adv-x="1210" 
d="M553 404q-143 14 -219 90q-35 35 -84 35q-50 0 -85 -35t-35 -85q0 -49 35 -84q120 -120 313 -153v-52q0 -50 35 -85t85 -35q49 0 84 35t35 85v51q110 18 200 67q50 27 86 71q87 107 61 237q-27 136 -155 205q-73 40 -215 68l-11 2q-101 20 -198 49q-6 1 -16 4
q-90 27 -97 51q-9 28 11 50q64 70 248 58q153 -9 235 -92q35 -35 84 -35q50 0 85 35t35 85t-35 85q-122 121 -318 153v52q0 49 -35 84t-84 35q-50 0 -85 -35t-35 -84v-51q-177 -26 -271 -127q-51 -56 -69 -133t5 -150q29 -96 114 -151q48 -31 145 -59l14 -4q109 -33 221 -55
l11 -2q106 -20 147 -43q29 -16 34 -42q4 -20 -12 -39q-6 -8 -13 -12q-108 -58 -251 -44z" />
    <glyph glyph-name="percent" unicode="%" horiz-adv-x="1137" 
d="M324 813q35 35 35 84q0 50 -35 85t-84 35q-50 0 -85 -35t-35 -85q0 -49 35 -84q35 -36 85 -36q49 0 84 36zM813 454q35 -35 84 -35q50 0 85 35t35 84q0 50 -35 85t-85 35q-49 0 -84 -35t-35 -85q0 -49 35 -84zM359 0q85 0 113 80l419 1196q16 47 -5 92q-22 44 -69 61
q-46 16 -91 -5q-45 -22 -61 -69l-419 -1196q-16 -47 5 -91q22 -45 69 -61q19 -7 39 -7z" />
    <glyph glyph-name="ampersand" unicode="&#x26;" horiz-adv-x="1496" 
d="M978 139q146 139 158 339h120q50 0 85 35q35 36 35 85q0 50 -35 85t-85 35h-478q-50 0 -85 -35t-35 -85q0 -49 35 -85q35 -35 85 -35h118q-11 -101 -88 -170q-76 -69 -180 -69q-111 0 -190 79t-79 190q0 112 79 191q79 78 190 78q50 0 85 36q35 35 35 84q0 50 -35 85
t-85 35q-37 0 -63 26t-26 63q0 38 26 64t63 26h269q50 0 85 35t35 85q0 49 -35 84t-85 35h-269q-136 0 -232 -96q-97 -97 -97 -233q0 -93 50 -173q-105 -70 -166 -180q-63 -114 -63 -245q0 -210 149 -359t359 -149q202 0 350 139z" />
    <glyph glyph-name="quotesingle" unicode="'" horiz-adv-x="420" 
d="M273 1041q27 27 27 64v239q0 37 -27 63q-26 27 -63 27t-64 -27q-26 -26 -26 -63v-239q0 -37 26 -64q27 -26 64 -26t63 26z" />
    <glyph glyph-name="parenleft" unicode="(" horiz-adv-x="826" 
d="M671 -199q35 35 35 85q0 49 -35 84q-311 311 -311 753q0 441 311 753q35 35 35 84q0 50 -35 85t-85 35q-49 0 -84 -35q-382 -382 -382 -922t382 -922q35 -35 84 -35q50 0 85 35z" />
    <glyph glyph-name="parenright" unicode=")" horiz-adv-x="826" 
d="M240 -232q49 0 84 35q382 382 382 922t-382 922q-35 35 -84 35q-50 0 -85 -35t-35 -85q0 -49 35 -84q311 -312 311 -753q0 -442 -311 -753q-35 -35 -35 -84q0 -50 35 -85t85 -35z" />
    <glyph glyph-name="asterisk" unicode="*" horiz-adv-x="685" 
d="M184 1051q15 0 28 7l70 38v-80q0 -25 18 -42q18 -18 42 -18q25 0 43 18q17 17 17 42v80l70 -38q14 -7 29 -7q35 0 52 32q12 22 5 45q-7 24 -29 36l-60 31l60 32q22 12 29 35q7 24 -5 46q-11 22 -35 29t-46 -5l-70 -37v80q0 24 -17 42q-18 17 -43 17q-24 0 -42 -17
q-18 -18 -18 -42v-80l-70 37q-22 12 -45 5q-24 -7 -36 -29q-11 -22 -4 -46q7 -23 29 -35l59 -32l-59 -31q-22 -12 -29 -36q-7 -23 4 -45q17 -32 53 -32z" />
    <glyph glyph-name="plus" unicode="+" horiz-adv-x="1137" 
d="M449 596v-209q0 -50 35 -85t85 -35q49 0 84 35t35 85v209h209q50 0 85 35t35 85q0 49 -35 84t-85 35h-209v209q0 50 -35 85t-84 35q-50 0 -85 -35t-35 -85v-209h-209q-50 0 -85 -35t-35 -84q0 -50 35 -85t85 -35h209z" />
    <glyph glyph-name="comma" unicode="," horiz-adv-x="778" 
d="M535 -178q123 123 123 296q0 49 -35 84t-84 35q-50 0 -85 -35t-35 -84q0 -75 -53 -127q-52 -53 -126 -53q-50 0 -85 -35t-35 -84q0 -50 35 -85t85 -35q173 0 295 123z" />
    <glyph glyph-name="hyphen" unicode="-" horiz-adv-x="1137" 
d="M897 595q50 0 85 35t35 85q0 49 -35 84t-85 35h-657q-50 0 -85 -35t-35 -84q0 -50 35 -85t85 -35h657z" />
    <glyph glyph-name="hyphen" unicode="&#xad;" horiz-adv-x="1137" 
d="M897 595q50 0 85 35t35 85q0 49 -35 84t-85 35h-657q-50 0 -85 -35t-35 -84q0 -50 35 -85t85 -35h657z" />
    <glyph glyph-name="period" unicode="." horiz-adv-x="479" 
d="M324 35q35 35 35 85q0 49 -35 84t-84 35q-50 0 -85 -35t-35 -84q0 -50 35 -85t85 -35q49 0 84 35z" />
    <glyph glyph-name="slash" unicode="/" horiz-adv-x="917" 
d="M249 0q85 0 113 80l419 1196q16 47 -6 92q-21 44 -68 61q-47 16 -91 -5q-45 -22 -61 -69l-419 -1196q-16 -47 5 -91q22 -45 68 -61q20 -7 40 -7z" />
    <glyph glyph-name="zero" unicode="0" horiz-adv-x="1376" 
d="M359 867q0 136 97 233q96 96 232 96t233 -96q96 -97 96 -233v-299q0 -136 -96 -232q-97 -97 -233 -97t-232 97q-97 96 -97 232v299zM1090 167q166 166 166 401v299q0 235 -166 402q-167 166 -402 166t-401 -166q-167 -167 -167 -402v-299q0 -235 167 -401
q166 -167 401 -167t402 167z" />
    <glyph glyph-name="one" unicode="1" horiz-adv-x="964" 
d="M605 1077v-957q0 -50 35 -85t84 -35q50 0 85 35t35 85v1196q0 74 -66 107t-126 -12l-478 -358q-40 -30 -47 -79t23 -89t79 -47t89 23z" />
    <glyph glyph-name="two" unicode="2" horiz-adv-x="1355" 
d="M670 1196q91 2 179 -27q96 -31 129 -80q6 -10 5 -16q-2 -13 -28 -41q-181 -188 -537 -569q-149 -160 -227 -243l-17 -19q-54 -57 -23 -129t110 -72h837q50 0 85 35t35 85q0 49 -35 84t-85 35h-562q19 20 57 61q354 380 534 566q79 82 93 169q15 99 -43 186
q-77 117 -248 174q-130 43 -263 40q-289 -5 -494 -210q-35 -35 -35 -84q0 -50 35 -85t85 -35q49 0 84 35q137 136 329 140z" />
    <glyph glyph-name="three" unicode="3" horiz-adv-x="1317" 
d="M240 239q-50 0 -85 -35t-35 -84q0 -50 35 -85t85 -35h538q173 0 296 123t123 296q0 175 -127 299q127 123 127 299q0 173 -123 296q-123 122 -296 122h-538q-50 0 -85 -35t-35 -84q0 -50 35 -85t85 -35h538q74 0 127 -52q52 -53 52 -127t-52 -127q-53 -53 -127 -53h-299
q-50 0 -85 -35t-35 -84q0 -50 35 -85t85 -35h299q74 0 127 -53q52 -52 52 -126q0 -75 -52 -127q-53 -53 -127 -53h-538z" />
    <glyph glyph-name="four" unicode="4" horiz-adv-x="1511" 
d="M852 419v-299q0 -50 36 -85q35 -35 84 -35q50 0 85 35t35 85v299h179q50 0 85 35t35 84q0 50 -35 85t-85 35h-179v179q0 50 -35 85t-85 35q-49 0 -84 -35q-36 -35 -36 -85v-179h-423l236 615q18 46 -2 91q-20 46 -67 63q-46 18 -91 -2t-63 -66l-299 -778q-23 -59 13 -110
q35 -52 98 -52h598z" />
    <glyph glyph-name="five" unicode="5" horiz-adv-x="1317" 
d="M240 239q-50 0 -85 -35t-35 -84q0 -50 35 -85t85 -35h538q173 0 296 123t123 296t-123 296q-123 122 -296 122h-419v359h718q49 0 84 35q36 35 36 85q0 49 -36 84q-35 35 -84 35h-837q-50 0 -85 -35t-35 -84v-598q0 -50 35 -85t85 -35h538q74 0 127 -53q52 -52 52 -126
q0 -75 -52 -127q-53 -53 -127 -53h-538z" />
    <glyph glyph-name="six" unicode="6" horiz-adv-x="1317" 
d="M778 598q74 0 127 -53q52 -52 52 -126q0 -75 -52 -127q-53 -53 -127 -53h-239q-75 0 -127 53q-53 52 -53 127q0 74 53 126q52 53 127 53h239zM778 0q173 0 296 123t123 296t-123 296q-123 122 -296 122h-239q-95 0 -180 -40v220q0 74 53 127q52 52 127 52h538q49 0 84 35
q36 35 36 85q0 49 -36 84q-35 35 -84 35h-538q-173 0 -296 -122q-123 -123 -123 -296v-598q0 -173 123 -296t296 -123h239z" />
    <glyph glyph-name="seven" unicode="7" horiz-adv-x="1392" 
d="M952 1196l-463 -1027q-20 -45 -2 -92q17 -46 62 -66q24 -11 49 -11q78 0 110 71l538 1196q26 59 -9 114q-35 54 -100 54h-897q-50 0 -85 -35t-35 -84q0 -50 35 -85t85 -35h712z" />
    <glyph glyph-name="eight" unicode="8" horiz-adv-x="1317" 
d="M778 598q74 0 127 -53q52 -52 52 -126q0 -75 -52 -127q-53 -53 -127 -53h-239q-75 0 -127 53q-53 52 -53 127q0 74 53 126q52 53 127 53h239zM412 1144q52 52 127 52h239q74 0 127 -52q52 -53 52 -127t-52 -127q-53 -53 -127 -53h-239q-75 0 -127 53q-53 53 -53 127
t53 127zM243 123q123 -123 296 -123h239q173 0 296 123t123 296q0 175 -127 299q127 123 127 299q0 173 -123 296q-123 122 -296 122h-239q-173 0 -296 -122q-123 -123 -123 -296q0 -176 126 -299q-126 -124 -126 -299q0 -173 123 -296z" />
    <glyph glyph-name="nine" unicode="9" horiz-adv-x="1317" 
d="M778 1196q74 0 127 -52q52 -53 52 -127t-52 -127q-53 -53 -127 -53h-239q-75 0 -127 53q-53 53 -53 127t53 127q52 52 127 52h239zM778 598q94 0 179 41v-519q0 -50 35 -85t85 -35q49 0 84 35q36 35 36 85v897q0 173 -123 296q-123 122 -296 122h-239q-173 0 -296 -122
q-123 -123 -123 -296t123 -296t296 -123h239z" />
    <glyph glyph-name="colon" unicode=":" horiz-adv-x="479" 
d="M324 35q35 35 35 85q0 49 -35 84t-84 35q-50 0 -85 -35t-35 -84q0 -50 35 -85t85 -35q49 0 84 35zM324 394q35 35 35 84q0 50 -35 85t-84 35q-50 0 -85 -35t-35 -85q0 -49 35 -84t85 -35q49 0 84 35z" />
    <glyph glyph-name="semicolon" unicode=";" horiz-adv-x="778" 
d="M623 392q35 35 35 84q0 50 -35 85t-84 35q-50 0 -85 -35t-35 -85q0 -49 35 -84t85 -35q49 0 84 35zM535 -178q123 123 123 296q0 49 -35 84t-84 35q-50 0 -85 -35t-35 -84q0 -75 -53 -127q-52 -53 -126 -53q-50 0 -85 -35t-35 -84q0 -50 35 -85t85 -35q173 0 295 123z
" />
    <glyph glyph-name="semicolon" unicode="&#x37e;" horiz-adv-x="778" 
d="M623 392q35 35 35 84q0 50 -35 85t-84 35q-50 0 -85 -35t-35 -85q0 -49 35 -84t85 -35q49 0 84 35zM535 -178q123 123 123 296q0 49 -35 84t-84 35q-50 0 -85 -35t-35 -84q0 -75 -53 -127q-52 -53 -126 -53q-50 0 -85 -35t-35 -84q0 -50 35 -85t85 -35q173 0 295 123z
" />
    <glyph glyph-name="less" unicode="&#x3c;" horiz-adv-x="898" 
d="M574 212q35 -35 84 -35q50 0 85 35t35 85q0 49 -35 84l-334 334l334 334q35 35 35 85q0 49 -35 84q-35 36 -85 36q-49 0 -84 -36l-419 -418q-35 -35 -35 -85q0 -49 35 -84z" />
    <glyph glyph-name="equal" unicode="=" horiz-adv-x="1137" 
d="M897 420q50 0 85 35t35 85q0 49 -35 84t-85 35h-657q-50 0 -85 -35t-35 -84q0 -50 35 -85t85 -35h657zM897 779q50 0 85 35t35 84q0 50 -35 85t-85 35h-657q-50 0 -85 -35t-35 -85q0 -49 35 -84t85 -35h657z" />
    <glyph glyph-name="greater" unicode="&#x3e;" horiz-adv-x="898" 
d="M240 177q49 0 84 35l419 419q35 35 35 84q0 50 -35 85l-419 418q-35 36 -84 36q-50 0 -85 -36q-35 -35 -35 -84q0 -50 35 -85l334 -334l-334 -334q-35 -35 -35 -84q0 -50 35 -85t85 -35z" />
    <glyph glyph-name="question" unicode="?" horiz-adv-x="1197" 
d="M324 872q35 35 35 85q0 99 70 169q71 70 169 70q99 0 170 -70q70 -70 70 -169t-70 -169q-71 -70 -170 -70q-49 0 -84 -35t-35 -85v-179q0 -50 35 -85t84 -35q50 0 85 35t35 85v75q156 40 257 168q102 130 102 295q0 198 -140 338q-141 140 -339 140q-197 0 -338 -140
q-140 -140 -140 -338q0 -50 35 -85t85 -35q49 0 84 35zM514 204q-35 -35 -35 -84q0 -50 35 -85t84 -35q50 0 85 35t35 85q0 49 -35 84t-85 35q-49 0 -84 -35z" />
    <glyph glyph-name="at" unicode="@" horiz-adv-x="1696" 
d="M763 617q-36 35 -36 85q0 49 36 84q35 35 84 35q50 0 85 -35t35 -84q0 -50 -35 -85t-85 -35q-49 0 -84 35zM161 911q-41 -134 -29 -271q0 1 0 -7q1 -8 1 -9q18 -160 103 -299q157 -253 446 -322q14 -3 28 -3q41 0 73 25q33 26 43 67q11 48 -15 90q-26 43 -74 54
q-193 46 -297 214q-16 26 -29 56q-5 10 -9 19v2q-53 135 -22 277q30 139 131 239v0q7 6 16 14l4 4l12 10q4 3 8 7q5 3 10 7t11 8q3 2 7 5q6 4 13 8q4 3 8 5q5 3 11 7q6 3 11 6q4 2 9 4q8 5 15 8q3 1 5 2q10 5 19 8q-1 0 2 1q118 46 242 28q122 -17 220 -91q1 0 5 -4
q7 -5 12 -9t11 -9l5 -5q124 -111 152 -275q-1 4 0 -4q2 -11 3 -19q0 -1 1 -11q1 -9 1 -11q1 -8 1 -18v-3v-2q5 -187 -119 -329v317q0 148 -105 253q-106 105 -254 105t-254 -105q-105 -105 -105 -253q0 -149 105 -254q106 -105 254 -105q62 0 120 20v-200q0 -64 53 -99
q33 -26 75 -26q26 0 49 10q271 123 375 402q57 153 43 314v6q-1 8 -1 9q-15 137 -80 260q-66 123 -172 212l-5 5q-6 5 -7 5q-108 87 -241 127q-133 41 -271 29l-7 -1q-8 0 -9 -1q-137 -14 -259 -80q-124 -65 -212 -171q-1 -1 -5 -6q-5 -6 -6 -7q-86 -107 -126 -240z" />
    <glyph glyph-name="A" unicode="A" horiz-adv-x="1575" 
d="M787 1025l219 -486h-437zM291 8q47 18 67 63l103 228h653l102 -228q32 -71 110 -71q25 0 49 11q45 20 62 67q18 46 -2 91l-539 1196q-31 71 -109 71q-77 0 -109 -71l-538 -1196q-20 -45 -3 -91q18 -47 63 -67t91 -3z" />
    <glyph glyph-name="B" unicode="B" 
d="M359 598h538q75 0 127 -53q53 -52 53 -126q0 -75 -53 -127q-52 -53 -127 -53h-538v359zM359 1196h419q74 0 127 -52q52 -53 52 -127t-52 -127q-53 -53 -127 -53h-419v359zM897 0q174 0 296 123q123 123 123 296q0 232 -197 355q78 109 78 243q0 173 -123 296
q-123 122 -296 122h-538q-50 0 -85 -35t-35 -84v-1196q0 -50 35 -85t85 -35h657z" />
    <glyph glyph-name="C" unicode="C" horiz-adv-x="1500" 
d="M1345 210q35 35 35 85q0 49 -35 84t-84 35q-50 0 -85 -35q-140 -140 -338 -140q-199 0 -339 140t-140 339q0 198 140 338t339 140q198 0 338 -140q35 -35 85 -35q49 0 84 35t35 85q0 49 -35 84q-210 210 -507 210q-298 0 -508 -210t-210 -507q0 -298 210 -508t508 -210
q297 0 507 210z" />
    <glyph glyph-name="D" unicode="D" 
d="M359 1196h239q198 0 339 -140q140 -140 140 -338t-140 -338q-141 -141 -339 -141h-239v957zM598 0q297 0 508 210q210 211 210 508q0 296 -210 507q-211 210 -508 210h-358q-50 0 -85 -35t-35 -84v-1196q0 -50 35 -85t85 -35h358z" />
    <glyph glyph-name="E" unicode="E" 
d="M1197 0q49 0 84 35t35 85q0 49 -35 84t-84 35h-838v359h598q50 0 85 35t35 85q0 49 -35 84t-85 35h-598v359h838q49 0 84 35t35 85q0 49 -35 84t-84 35h-957q-50 0 -85 -35t-35 -84v-1196q0 -50 35 -85t85 -35h957z" />
    <glyph glyph-name="F" unicode="F" 
d="M324 35q35 35 35 85v478h598q50 0 85 35t35 85q0 49 -35 84t-85 35h-598v359h838q49 0 84 35t35 85q0 49 -35 84t-84 35h-957q-50 0 -85 -35t-35 -84v-1196q0 -50 35 -85t85 -35q49 0 84 35z" />
    <glyph glyph-name="G" unicode="G" horiz-adv-x="1500" 
d="M838 0q297 0 507 210q35 35 35 85v423q0 49 -35 84t-84 35h-483q-50 0 -85 -35t-35 -84q0 -50 35 -85t85 -35h363v-250q-132 -109 -303 -109q-199 0 -339 140t-140 339q0 198 140 338t339 140q198 0 338 -140q35 -35 85 -35q49 0 84 35t35 85q0 49 -35 84
q-210 210 -507 210q-298 0 -508 -210t-210 -507q0 -298 210 -508t508 -210z" />
    <glyph glyph-name="H" unicode="H" 
d="M324 35q35 35 35 85v478h718v-478q0 -50 35 -85t85 -35q49 0 84 35t35 85v1196q0 49 -35 84t-84 35q-50 0 -85 -35t-35 -84v-479h-718v479q0 49 -35 84t-84 35q-50 0 -85 -35t-35 -84v-1196q0 -50 35 -85t85 -35q49 0 84 35z" />
    <glyph glyph-name="I" unicode="I" horiz-adv-x="479" 
d="M324 35q35 35 35 85v1196q0 49 -35 84t-84 35q-50 0 -85 -35t-35 -84v-1196q0 -50 35 -85t85 -35q49 0 84 35z" />
    <glyph glyph-name="J" unicode="J" horiz-adv-x="1077" 
d="M747 210q210 211 210 508v598q0 49 -35 84t-84 35q-50 0 -85 -35t-35 -84v-598q0 -198 -140 -338q-141 -141 -338 -141q-50 0 -85 -35t-35 -84q0 -50 35 -85t85 -35q296 0 507 210z" />
    <glyph glyph-name="K" unicode="K" horiz-adv-x="1441" 
d="M324 35q35 35 35 85v375q9 4 15 10l118 94l624 -568q34 -31 80 -31q53 0 89 39q33 37 31 86q-2 50 -39 83l-596 542l590 472q39 31 44 81q6 49 -25 87q-31 39 -80 45q-50 5 -88 -26l-763 -610v517q0 49 -35 84t-84 35q-50 0 -85 -35t-35 -84v-1196q0 -50 35 -85t85 -35
q49 0 84 35z" />
    <glyph glyph-name="L" unicode="L" 
d="M359 239v1077q0 49 -35 84t-84 35q-50 0 -85 -35t-35 -84v-1196q0 -50 35 -85t85 -35h957q49 0 84 35t35 85q0 49 -35 84t-84 35h-838z" />
    <glyph glyph-name="M" unicode="M" horiz-adv-x="1795" 
d="M324 35q35 35 35 85v850l444 -565q36 -46 94 -46q59 0 95 46l444 565v-850q0 -50 35 -85t84 -35q50 0 85 35t35 85v1196q0 85 -81 113q-80 28 -133 -39l-564 -718l-563 718q-53 67 -133 39q-81 -28 -81 -113v-1196q0 -50 35 -85t85 -35q49 0 84 35z" />
    <glyph glyph-name="N" unicode="N" horiz-adv-x="1496" 
d="M324 35q35 35 35 85v870l806 -948q36 -42 91 -42q22 0 42 7q78 29 78 113v1196q0 49 -35 84t-85 35q-49 0 -84 -35t-35 -84v-871l-806 948q-54 64 -133 35q-78 -29 -78 -112v-1196q0 -50 35 -85t85 -35q49 0 84 35z" />
    <glyph glyph-name="O" unicode="O" horiz-adv-x="1675" 
d="M1176 1056q140 -140 140 -338t-140 -338q-140 -141 -338 -141t-338 141q-141 140 -141 338t141 338q140 140 338 140t338 -140zM1345 210q210 211 210 508q0 296 -210 507q-211 210 -507 210q-297 0 -508 -210q-210 -211 -210 -507q0 -297 210 -508q211 -210 508 -210
q296 0 507 210z" />
    <glyph glyph-name="P" unicode="P" 
d="M359 1196h479q99 0 169 -70t70 -169t-70 -169t-169 -70h-479v478zM324 35q35 35 35 85v358h479q198 0 338 141q140 140 140 338t-140 338t-338 140h-598q-50 0 -85 -35t-35 -84v-1196q0 -50 35 -85t85 -35q49 0 84 35z" />
    <glyph glyph-name="Q" unicode="Q" horiz-adv-x="1675" 
d="M1176 1059q140 -140 140 -338t-140 -338t-338 -140t-338 140q-141 140 -141 338t141 338q140 141 338 141t338 -141zM1080 45l98 -163q35 -58 102 -58q33 0 62 17q42 26 54 74t-13 90l-95 158q267 216 267 558q0 297 -210 507q-211 211 -507 211q-297 0 -508 -211
q-210 -210 -210 -507t210 -507q211 -211 508 -211q125 0 242 42z" />
    <glyph glyph-name="R" unicode="R" horiz-adv-x="1444" 
d="M359 1196h479q99 0 169 -70t70 -169t-70 -169t-169 -70h-479v478zM324 35q35 35 35 85v358h472l264 -422q35 -56 102 -56q34 0 63 18q42 26 53 75q11 48 -15 90l-224 358q110 63 175 172q67 113 67 244q0 198 -140 338t-338 140h-598q-50 0 -85 -35t-35 -84v-1196
q0 -50 35 -85t85 -35q49 0 84 35z" />
    <glyph glyph-name="S" unicode="S" horiz-adv-x="1476" 
d="M661 243q-209 21 -325 137q-35 35 -84 35q-50 0 -85 -35t-35 -85q0 -49 35 -84q211 -211 567 -211q228 0 412 99q61 33 105 87q105 130 74 288q-33 166 -190 251q-95 52 -283 88l-15 3q-139 27 -276 68l-21 6q-85 25 -115 42q-38 21 -49 57q-19 64 26 112q102 111 375 94
q226 -14 351 -139q35 -35 85 -35q49 0 84 35t35 85q0 49 -35 84q-188 189 -505 209q-386 24 -566 -170q-63 -68 -84 -162q-22 -94 5 -182q36 -118 141 -184q60 -38 185 -75q12 -4 19 -6q148 -44 299 -74l16 -3q152 -29 214 -63q58 -32 69 -88q9 -47 -26 -91q-13 -16 -31 -26
q-163 -88 -372 -67z" />
    <glyph glyph-name="T" unicode="T" 
d="M598 1196v-1076q0 -50 35 -85q36 -35 85 -35q50 0 85 35t35 85v1076h359q49 0 84 35t35 85q0 49 -35 84t-84 35h-957q-50 0 -85 -35t-35 -84q0 -50 35 -85t85 -35h358z" />
    <glyph glyph-name="U" unicode="U" horiz-adv-x="1496" 
d="M1192 184q184 184 184 444v688q0 49 -35 84t-85 35q-49 0 -84 -35t-35 -84v-688q0 -161 -114 -275t-275 -114t-275 114t-114 275v688q0 49 -35 84t-84 35q-50 0 -85 -35t-35 -84v-688q0 -260 184 -444t444 -184t444 184z" />
    <glyph glyph-name="V" unicode="V" horiz-adv-x="1575" 
d="M678 71q32 -71 109 -71q78 0 109 71l539 1196q20 45 2 91q-17 46 -62 67q-46 20 -92 3q-46 -18 -67 -63l-429 -954l-429 954q-20 45 -67 63q-46 17 -91 -3q-45 -21 -63 -67q-17 -46 3 -91z" />
    <glyph glyph-name="W" unicode="W" horiz-adv-x="2293" 
d="M678 71q31 -68 105 -71t109 62l254 466l254 -466q34 -62 105 -62h4q75 3 105 71l538 1196q21 45 3 91q-18 47 -63 67t-91 3q-47 -18 -67 -63l-439 -977l-244 447q-34 62 -105 62t-105 -62l-243 -447l-440 977q-20 45 -67 63q-46 17 -91 -3t-63 -67q-17 -46 3 -91z" />
    <glyph glyph-name="X" unicode="X" horiz-adv-x="1446" 
d="M245 0q57 0 93 45l385 481l385 -481q36 -45 94 -45q42 0 74 26q39 31 44 80q6 50 -25 88l-419 524l419 523q31 39 25 88q-5 49 -44 80q-38 31 -88 26q-49 -6 -80 -45l-385 -481l-385 481q-31 39 -80 45q-49 5 -88 -26t-44 -80q-6 -49 25 -88l419 -523l-419 -524
q-31 -38 -25 -88q5 -49 44 -80q33 -26 75 -26z" />
    <glyph glyph-name="Y" unicode="Y" horiz-adv-x="1451" 
d="M606 562v-442q0 -50 35 -85t84 -35q50 0 85 35t35 85v442l458 687q28 42 18 90q-10 49 -51 76q-41 28 -90 18q-48 -10 -76 -51l-379 -568l-379 568q-27 41 -76 51q-48 10 -90 -18q-41 -27 -50 -76q-10 -48 17 -90z" />
    <glyph glyph-name="Z" unicode="Z" horiz-adv-x="1477" 
d="M968 1196l-801 -1002q-47 -58 -15 -126q33 -68 108 -68h957q50 0 85 35t35 85q0 49 -35 84t-85 35h-708l801 1002q47 59 15 127q-33 67 -108 67h-957q-49 0 -84 -35t-35 -84q0 -50 35 -85t84 -35h708z" />
    <glyph glyph-name="asciicircum" unicode="^" horiz-adv-x="787" 
d="M227 1711q36 5 59 35l107 144l108 -144q27 -36 72 -36q30 0 53 18q30 22 35 59q6 37 -17 67l-179 239q-27 36 -72 36t-72 -36l-179 -239q-22 -30 -17 -67t35 -59t67 -17z" />
    <glyph glyph-name="underscore" unicode="_" horiz-adv-x="1137" 
d="M897 0q50 0 85 35t35 85q0 49 -35 84t-85 35h-657q-50 0 -85 -35t-35 -84q0 -50 35 -85t85 -35h657z" />
    <glyph glyph-name="grave" unicode="`" horiz-adv-x="549" 
d="M254 1756q26 -46 79 -46q23 0 43 11q33 18 43 54t-8 68l-116 209q-18 32 -53 42q-36 11 -69 -8q-32 -18 -42 -53q-11 -36 8 -69z" />
    <glyph glyph-name="a" unicode="a" horiz-adv-x="1575" 
d="M787 1025l219 -486h-437zM291 8q47 18 67 63l103 228h653l102 -228q32 -71 110 -71q25 0 49 11q45 20 62 67q18 46 -2 91l-539 1196q-31 71 -109 71q-77 0 -109 -71l-538 -1196q-20 -45 -3 -91q18 -47 63 -67t91 -3z" />
    <glyph glyph-name="b" unicode="b" 
d="M359 598h538q75 0 127 -53q53 -52 53 -126q0 -75 -53 -127q-52 -53 -127 -53h-538v359zM359 1196h419q74 0 127 -52q52 -53 52 -127t-52 -127q-53 -53 -127 -53h-419v359zM897 0q174 0 296 123q123 123 123 296q0 232 -197 355q78 109 78 243q0 173 -123 296
q-123 122 -296 122h-538q-50 0 -85 -35t-35 -84v-1196q0 -50 35 -85t85 -35h657z" />
    <glyph glyph-name="c" unicode="c" horiz-adv-x="1500" 
d="M1345 210q35 35 35 85q0 49 -35 84t-84 35q-50 0 -85 -35q-140 -140 -338 -140q-199 0 -339 140t-140 339q0 198 140 338t339 140q198 0 338 -140q35 -35 85 -35q49 0 84 35t35 85q0 49 -35 84q-210 210 -507 210q-298 0 -508 -210t-210 -507q0 -298 210 -508t508 -210
q297 0 507 210z" />
    <glyph glyph-name="d" unicode="d" 
d="M359 1196h239q198 0 339 -140q140 -140 140 -338t-140 -338q-141 -141 -339 -141h-239v957zM598 0q297 0 508 210q210 211 210 508q0 296 -210 507q-211 210 -508 210h-358q-50 0 -85 -35t-35 -84v-1196q0 -50 35 -85t85 -35h358z" />
    <glyph glyph-name="e" unicode="e" 
d="M1197 0q49 0 84 35t35 85q0 49 -35 84t-84 35h-838v359h598q50 0 85 35t35 85q0 49 -35 84t-85 35h-598v359h838q49 0 84 35t35 85q0 49 -35 84t-84 35h-957q-50 0 -85 -35t-35 -84v-1196q0 -50 35 -85t85 -35h957z" />
    <glyph glyph-name="f" unicode="f" 
d="M324 35q35 35 35 85v478h598q50 0 85 35t35 85q0 49 -35 84t-85 35h-598v359h838q49 0 84 35t35 85q0 49 -35 84t-84 35h-957q-50 0 -85 -35t-35 -84v-1196q0 -50 35 -85t85 -35q49 0 84 35z" />
    <glyph glyph-name="g" unicode="g" horiz-adv-x="1500" 
d="M838 0q297 0 507 210q35 35 35 85v423q0 49 -35 84t-84 35h-483q-50 0 -85 -35t-35 -84q0 -50 35 -85t85 -35h363v-250q-132 -109 -303 -109q-199 0 -339 140t-140 339q0 198 140 338t339 140q198 0 338 -140q35 -35 85 -35q49 0 84 35t35 85q0 49 -35 84
q-210 210 -507 210q-298 0 -508 -210t-210 -507q0 -298 210 -508t508 -210z" />
    <glyph glyph-name="h" unicode="h" 
d="M324 35q35 35 35 85v478h718v-478q0 -50 35 -85t85 -35q49 0 84 35t35 85v1196q0 49 -35 84t-84 35q-50 0 -85 -35t-35 -84v-479h-718v479q0 49 -35 84t-84 35q-50 0 -85 -35t-35 -84v-1196q0 -50 35 -85t85 -35q49 0 84 35z" />
    <glyph glyph-name="i" unicode="i" horiz-adv-x="479" 
d="M324 35q35 35 35 85v1196q0 49 -35 84t-84 35q-50 0 -85 -35t-35 -84v-1196q0 -50 35 -85t85 -35q49 0 84 35z" />
    <glyph glyph-name="j" unicode="j" horiz-adv-x="1077" 
d="M747 210q210 211 210 508v598q0 49 -35 84t-84 35q-50 0 -85 -35t-35 -84v-598q0 -198 -140 -338q-141 -141 -338 -141q-50 0 -85 -35t-35 -84q0 -50 35 -85t85 -35q296 0 507 210z" />
    <glyph glyph-name="k" unicode="k" horiz-adv-x="1441" 
d="M324 35q35 35 35 85v375q9 4 15 10l118 94l624 -568q34 -31 80 -31q53 0 89 39q33 37 31 86q-2 50 -39 83l-596 542l590 472q39 31 44 81q6 49 -25 87q-31 39 -80 45q-50 5 -88 -26l-763 -610v517q0 49 -35 84t-84 35q-50 0 -85 -35t-35 -84v-1196q0 -50 35 -85t85 -35
q49 0 84 35z" />
    <glyph glyph-name="l" unicode="l" 
d="M359 239v1077q0 49 -35 84t-84 35q-50 0 -85 -35t-35 -84v-1196q0 -50 35 -85t85 -35h957q49 0 84 35t35 85q0 49 -35 84t-84 35h-838z" />
    <glyph glyph-name="m" unicode="m" horiz-adv-x="1795" 
d="M324 35q35 35 35 85v850l444 -565q36 -46 94 -46q59 0 95 46l444 565v-850q0 -50 35 -85t84 -35q50 0 85 35t35 85v1196q0 85 -81 113q-80 28 -133 -39l-564 -718l-563 718q-53 67 -133 39q-81 -28 -81 -113v-1196q0 -50 35 -85t85 -35q49 0 84 35z" />
    <glyph glyph-name="n" unicode="n" horiz-adv-x="1496" 
d="M324 35q35 35 35 85v870l806 -948q36 -42 91 -42q22 0 42 7q78 29 78 113v1196q0 49 -35 84t-85 35q-49 0 -84 -35t-35 -84v-871l-806 948q-54 64 -133 35q-78 -29 -78 -112v-1196q0 -50 35 -85t85 -35q49 0 84 35z" />
    <glyph glyph-name="o" unicode="o" horiz-adv-x="1675" 
d="M1176 1056q140 -140 140 -338t-140 -338q-140 -141 -338 -141t-338 141q-141 140 -141 338t141 338q140 140 338 140t338 -140zM1345 210q210 211 210 508q0 296 -210 507q-211 210 -507 210q-297 0 -508 -210q-210 -211 -210 -507q0 -297 210 -508q211 -210 508 -210
q296 0 507 210z" />
    <glyph glyph-name="p" unicode="p" 
d="M359 1196h479q99 0 169 -70t70 -169t-70 -169t-169 -70h-479v478zM324 35q35 35 35 85v358h479q198 0 338 141q140 140 140 338t-140 338t-338 140h-598q-50 0 -85 -35t-35 -84v-1196q0 -50 35 -85t85 -35q49 0 84 35z" />
    <glyph glyph-name="q" unicode="q" horiz-adv-x="1675" 
d="M1176 1059q140 -140 140 -338t-140 -338t-338 -140t-338 140q-141 140 -141 338t141 338q140 141 338 141t338 -141zM1080 45l98 -163q35 -58 102 -58q33 0 62 17q42 26 54 74t-13 90l-95 158q267 216 267 558q0 297 -210 507q-211 211 -507 211q-297 0 -508 -211
q-210 -210 -210 -507t210 -507q211 -211 508 -211q125 0 242 42z" />
    <glyph glyph-name="r" unicode="r" horiz-adv-x="1444" 
d="M359 1196h479q99 0 169 -70t70 -169t-70 -169t-169 -70h-479v478zM324 35q35 35 35 85v358h472l264 -422q35 -56 102 -56q34 0 63 18q42 26 53 75q11 48 -15 90l-224 358q110 63 175 172q67 113 67 244q0 198 -140 338t-338 140h-598q-50 0 -85 -35t-35 -84v-1196
q0 -50 35 -85t85 -35q49 0 84 35z" />
    <glyph glyph-name="s" unicode="s" horiz-adv-x="1476" 
d="M661 243q-209 21 -325 137q-35 35 -84 35q-50 0 -85 -35t-35 -85q0 -49 35 -84q211 -211 567 -211q228 0 412 99q61 33 105 87q105 130 74 288q-33 166 -190 251q-95 52 -283 88l-15 3q-139 27 -276 68l-21 6q-85 25 -115 42q-38 21 -49 57q-19 64 26 112q102 111 375 94
q226 -14 351 -139q35 -35 85 -35q49 0 84 35t35 85q0 49 -35 84q-188 189 -505 209q-386 24 -566 -170q-63 -68 -84 -162q-22 -94 5 -182q36 -118 141 -184q60 -38 185 -75q12 -4 19 -6q148 -44 299 -74l16 -3q152 -29 214 -63q58 -32 69 -88q9 -47 -26 -91q-13 -16 -31 -26
q-163 -88 -372 -67z" />
    <glyph glyph-name="t" unicode="t" 
d="M598 1196v-1076q0 -50 35 -85q36 -35 85 -35q50 0 85 35t35 85v1076h359q49 0 84 35t35 85q0 49 -35 84t-84 35h-957q-50 0 -85 -35t-35 -84q0 -50 35 -85t85 -35h358z" />
    <glyph glyph-name="u" unicode="u" horiz-adv-x="1496" 
d="M1192 184q184 184 184 444v688q0 49 -35 84t-85 35q-49 0 -84 -35t-35 -84v-688q0 -161 -114 -275t-275 -114t-275 114t-114 275v688q0 49 -35 84t-84 35q-50 0 -85 -35t-35 -84v-688q0 -260 184 -444t444 -184t444 184z" />
    <glyph glyph-name="v" unicode="v" horiz-adv-x="1575" 
d="M678 71q32 -71 109 -71q78 0 109 71l539 1196q20 45 2 91q-17 46 -62 67q-46 20 -92 3q-46 -18 -67 -63l-429 -954l-429 954q-20 45 -67 63q-46 17 -91 -3q-45 -21 -63 -67q-17 -46 3 -91z" />
    <glyph glyph-name="w" unicode="w" horiz-adv-x="2293" 
d="M678 71q31 -68 105 -71t109 62l254 466l254 -466q34 -62 105 -62h4q75 3 105 71l538 1196q21 45 3 91q-18 47 -63 67t-91 3q-47 -18 -67 -63l-439 -977l-244 447q-34 62 -105 62t-105 -62l-243 -447l-440 977q-20 45 -67 63q-46 17 -91 -3t-63 -67q-17 -46 3 -91z" />
    <glyph glyph-name="x" unicode="x" horiz-adv-x="1446" 
d="M245 0q57 0 93 45l385 481l385 -481q36 -45 94 -45q42 0 74 26q39 31 44 80q6 50 -25 88l-419 524l419 523q31 39 25 88q-5 49 -44 80q-38 31 -88 26q-49 -6 -80 -45l-385 -481l-385 481q-31 39 -80 45q-49 5 -88 -26t-44 -80q-6 -49 25 -88l419 -523l-419 -524
q-31 -38 -25 -88q5 -49 44 -80q33 -26 75 -26z" />
    <glyph glyph-name="y" unicode="y" horiz-adv-x="1451" 
d="M606 562v-442q0 -50 35 -85t84 -35q50 0 85 35t35 85v442l458 687q28 42 18 90q-10 49 -51 76q-41 28 -90 18q-48 -10 -76 -51l-379 -568l-379 568q-27 41 -76 51q-48 10 -90 -18q-41 -27 -50 -76q-10 -48 17 -90z" />
    <glyph glyph-name="z" unicode="z" horiz-adv-x="1477" 
d="M968 1196l-801 -1002q-47 -58 -15 -126q33 -68 108 -68h957q50 0 85 35t35 85q0 49 -35 84t-85 35h-708l801 1002q47 59 15 127q-33 67 -108 67h-957q-49 0 -84 -35t-35 -84q0 -50 35 -85t84 -35h708z" />
    <glyph glyph-name="dieresis" unicode="&#xa8;" horiz-adv-x="838" 
d="M683 1745q35 35 35 85q0 49 -35 84t-85 35q-49 0 -84 -35t-35 -84q0 -50 35 -85t84 -35q50 0 85 35zM324 1745q35 35 35 85q0 49 -35 84t-84 35q-50 0 -85 -35t-35 -84q0 -50 35 -85t85 -35q49 0 84 35z" />
    <glyph glyph-name="degree" unicode="&#xb0;" horiz-adv-x="738" 
d="M419 2009q20 -21 20 -50t-20 -49q-21 -21 -50 -21t-49 21q-21 20 -21 49t21 50q20 20 49 20t50 -20zM545 1783q73 73 73 176t-73 176t-176 73t-176 -73t-73 -176t73 -176t176 -73t176 73z" />
    <glyph glyph-name="acute" unicode="&#xb4;" horiz-adv-x="549" 
d="M217 1710q53 0 78 46l116 208q18 33 8 69q-10 35 -43 53q-32 19 -68 8q-36 -10 -54 -42l-115 -209q-19 -32 -8 -68q10 -36 42 -54q21 -11 44 -11z" />
    <glyph glyph-name="Agrave" unicode="&#xc0;" horiz-adv-x="1575" 
d="M787 1025l219 -486h-437zM291 8q47 18 67 63l103 228h653l102 -228q32 -71 110 -71q25 0 49 11q45 20 62 67q18 46 -2 91l-539 1196q-31 71 -109 71q-77 0 -109 -71l-538 -1196q-20 -45 -3 -91q18 -47 63 -67t91 -3zM717 1756q26 -46 79 -46q23 0 43 11q33 18 43 54
t-8 68l-115 209q-19 32 -54 42q-36 11 -68 -8q-33 -18 -43 -53q-10 -36 8 -69z" />
    <glyph glyph-name="Aacute" unicode="&#xc1;" horiz-adv-x="1575" 
d="M787 1025l219 -486h-437zM291 8q47 18 67 63l103 228h653l102 -228q32 -71 110 -71q25 0 49 11q45 20 62 67q18 46 -2 91l-539 1196q-31 71 -109 71q-77 0 -109 -71l-538 -1196q-20 -45 -3 -91q18 -47 63 -67t91 -3zM779 1710q52 0 78 46l116 208q18 33 8 69
q-11 35 -43 53q-33 19 -68 8q-36 -10 -54 -42l-116 -209q-18 -32 -8 -68q11 -36 43 -54q20 -11 44 -11z" />
    <glyph glyph-name="Acircumflex" unicode="&#xc2;" horiz-adv-x="1575" 
d="M787 1025l219 -486h-437zM291 8q47 18 67 63l103 228h653l102 -228q32 -71 110 -71q25 0 49 11q45 20 62 67q18 46 -2 91l-539 1196q-31 71 -109 71q-77 0 -109 -71l-538 -1196q-20 -45 -3 -91q18 -47 63 -67t91 -3zM621 1711q36 5 59 35l107 144l108 -144q27 -36 72 -36
q30 0 53 18q30 22 35 59q6 37 -17 67l-179 239q-27 36 -72 36t-72 -36l-179 -239q-22 -30 -17 -67t35 -59t67 -17z" />
    <glyph glyph-name="Atilde" unicode="&#xc3;" horiz-adv-x="1575" 
d="M787 1025l219 -486h-437zM291 8q47 18 67 63l103 228h653l102 -228q32 -71 110 -71q25 0 49 11q45 20 62 67q18 46 -2 91l-539 1196q-31 71 -109 71q-77 0 -109 -71l-538 -1196q-20 -45 -3 -91q18 -47 63 -67t91 -3zM579 1757q35 12 51 46q8 17 26 21q18 5 72 -37
q80 -62 139 -73q20 -4 39 -4q62 0 116 33q55 34 83 90q17 33 5 68q-11 36 -45 52q-33 17 -68 5t-52 -45q-14 -29 -44 -23q-17 3 -64 39q-123 96 -226 69q-98 -25 -143 -117q-16 -34 -3 -69q12 -35 45 -51q34 -16 69 -4z" />
    <glyph glyph-name="Adieresis" unicode="&#xc4;" horiz-adv-x="1575" 
d="M787 1025l219 -486h-437zM291 8q47 18 67 63l103 228h653l102 -228q32 -71 110 -71q25 0 49 11q45 20 62 67q18 46 -2 91l-539 1196q-31 71 -109 71q-77 0 -109 -71l-538 -1196q-20 -45 -3 -91q18 -47 63 -67t91 -3zM1051 1745q35 35 35 85q0 49 -35 84t-84 35
q-50 0 -85 -35t-35 -84q0 -50 35 -85t85 -35q49 0 84 35zM692 1745q35 35 35 85q0 49 -35 84t-84 35q-50 0 -85 -35t-35 -84q0 -50 35 -85t85 -35q49 0 84 35z" />
    <glyph glyph-name="Aring" unicode="&#xc5;" horiz-adv-x="1575" 
d="M787 1025l219 -486h-437zM291 8q47 18 67 63l103 228h653l102 -228q32 -71 110 -71q25 0 49 11q45 20 62 67q18 46 -2 91l-539 1196q-31 71 -109 71q-77 0 -109 -71l-538 -1196q-20 -45 -3 -91q18 -47 63 -67t91 -3zM837 2009q20 -21 20 -50t-20 -49q-21 -21 -50 -21
t-49 21q-21 20 -21 49t21 50q20 20 49 20t50 -20zM963 1783q73 73 73 176t-73 176t-176 73t-176 -73t-73 -176t73 -176t176 -73t176 73z" />
    <glyph glyph-name="AE" unicode="&#xc6;" horiz-adv-x="2339" 
d="M1023 538h-314l314 419v-419zM246 0q60 0 95 48l189 251h493v-179q0 -50 35 -85t85 -35h957q49 0 84 35t35 85q0 49 -35 84t-84 35h-838v359h599q49 0 84 35t35 85q0 49 -35 84t-84 35h-599v359h838q49 0 84 35t35 85q0 49 -35 84t-84 35h-958h-10q-1 0 -4 -1q-3 0 -7 -1
h-4q-3 -1 -7 -2q-3 -1 -5 -2q-5 -1 -7 -3q-1 0 -5 -1q-3 -2 -5 -3l-4 -2l-6 -4l-3 -2q-9 -6 -16 -13l-2 -2q-3 -3 -5 -6l-3 -3q-3 -4 -2 -2l-897 -1197q-30 -39 -23 -88t47 -79q32 -24 72 -24z" />
    <glyph glyph-name="Ccedilla" unicode="&#xc7;" horiz-adv-x="1500" 
d="M1380 295q0 50 -35 85t-84 35q-50 0 -85 -35q-140 -140 -338 -140q-199 0 -339 140t-140 338t140 338t339 140q198 0 338 -140q35 -35 85 -35q49 0 84 35t35 85q0 49 -35 84q-210 211 -507 211q-298 0 -508 -211q-210 -210 -210 -507t210 -507q184 -185 443 -208v-122
q0 -37 26 -64q26 -26 63 -26t64 26q26 27 26 64v128q228 37 393 202q35 35 35 84z" />
    <glyph glyph-name="Egrave" unicode="&#xc8;" 
d="M1197 0q49 0 84 35t35 85q0 49 -35 84t-84 35h-838v359h598q50 0 85 35t35 85q0 49 -35 84t-85 35h-598v359h838q49 0 84 35t35 85q0 49 -35 84t-84 35h-957q-50 0 -85 -35t-35 -84v-1196q0 -50 35 -85t85 -35h957zM648 1756q26 -46 79 -46q23 0 43 11q33 18 43 54t-8 68
l-116 209q-18 32 -53 42q-36 11 -69 -8q-32 -18 -42 -53q-11 -36 8 -69z" />
    <glyph glyph-name="Eacute" unicode="&#xc9;" 
d="M1197 0q49 0 84 35t35 85q0 49 -35 84t-84 35h-838v359h598q50 0 85 35t35 85q0 49 -35 84t-85 35h-598v359h838q49 0 84 35t35 85q0 49 -35 84t-84 35h-957q-50 0 -85 -35t-35 -84v-1196q0 -50 35 -85t85 -35h957zM709 1710q53 0 79 46l116 208q18 33 7 69
q-10 35 -42 53q-33 19 -68 8q-36 -10 -54 -42l-116 -209q-18 -32 -8 -68t43 -54q20 -11 43 -11z" />
    <glyph glyph-name="Ecircumflex" unicode="&#xca;" 
d="M1197 0q49 0 84 35t35 85q0 49 -35 84t-84 35h-838v359h598q50 0 85 35t35 85q0 49 -35 84t-85 35h-598v359h838q49 0 84 35t35 85q0 49 -35 84t-84 35h-957q-50 0 -85 -35t-35 -84v-1196q0 -50 35 -85t85 -35h957zM551 1711q37 5 59 35l108 144l108 -144q27 -36 72 -36
q29 0 53 18q30 22 35 59q6 37 -17 67l-179 239q-27 36 -72 36t-72 -36l-179 -239q-22 -30 -17 -67t35 -59t66 -17z" />
    <glyph glyph-name="Edieresis" unicode="&#xcb;" 
d="M1197 0q49 0 84 35t35 85q0 49 -35 84t-84 35h-838v359h598q50 0 85 35t35 85q0 49 -35 84t-85 35h-598v359h838q49 0 84 35t35 85q0 49 -35 84t-84 35h-957q-50 0 -85 -35t-35 -84v-1196q0 -50 35 -85t85 -35h957zM982 1745q35 35 35 85q0 49 -35 84t-85 35
q-49 0 -84 -35t-35 -84q0 -50 35 -85t84 -35q50 0 85 35zM623 1745q35 35 35 85q0 49 -35 84t-84 35q-50 0 -85 -35t-35 -84q0 -50 35 -85t85 -35q49 0 84 35z" />
    <glyph glyph-name="Igrave" unicode="&#xcc;" horiz-adv-x="563" 
d="M408 35q35 35 35 85v1196q0 49 -35 84t-84 35q-50 0 -85 -35t-35 -84v-1196q0 -50 35 -85t85 -35q49 0 84 35zM254 1756q25 -46 78 -46q23 0 44 11q32 18 42 54q11 36 -7 68l-116 209q-18 32 -54 42q-36 11 -68 -8q-33 -18 -43 -53q-10 -36 8 -69z" />
    <glyph glyph-name="Iacute" unicode="&#xcd;" horiz-adv-x="563" 
d="M324 35q35 35 35 85v1196q0 49 -35 84t-84 35q-50 0 -85 -35t-35 -84v-1196q0 -50 35 -85t85 -35q49 0 84 35zM231 1710q53 0 78 46l116 208q18 33 8 69q-10 35 -43 53q-32 19 -68 8q-36 -10 -54 -42l-115 -209q-18 -32 -8 -68t42 -54q21 -11 44 -11z" />
    <glyph glyph-name="Icircumflex" unicode="&#xce;" horiz-adv-x="787" 
d="M478 35q35 35 35 85v1196q0 49 -35 84t-84 35q-50 0 -85 -35t-35 -84v-1196q0 -50 35 -85t85 -35q49 0 84 35zM227 1711q37 5 59 35l108 144l107 -144q27 -36 72 -36q30 0 54 18q30 22 35 59t-17 67l-180 239q-27 36 -71 36q-45 0 -72 -36l-180 -239q-22 -30 -17 -67
q6 -37 35 -59q30 -22 67 -17z" />
    <glyph glyph-name="Idieresis" unicode="&#xcf;" horiz-adv-x="838" 
d="M503 35q35 35 35 85v1196q0 49 -35 84t-84 35q-50 0 -85 -35t-35 -84v-1196q0 -50 35 -85t85 -35q49 0 84 35zM683 1745q35 35 35 85q0 49 -35 84t-85 35t-85 -35t-35 -84q0 -50 35 -85q36 -35 85 -35q50 0 85 35zM324 1745q35 35 35 85q0 49 -35 84t-85 35
q-49 0 -84 -35t-35 -84q0 -50 35 -85t84 -35q50 0 85 35z" />
    <glyph glyph-name="Eth" unicode="&#xd0;" horiz-adv-x="1586" 
d="M509 1196h239q198 0 338 -140t140 -338t-140 -338q-140 -141 -338 -141h-239v359h388q50 0 85 35t35 85q0 49 -35 84t-85 35h-388v359zM269 598v-478q0 -50 36 -85q35 -35 84 -35h359q297 0 507 210q211 211 211 508q0 296 -211 507q-210 210 -507 210h-359
q-49 0 -84 -35q-36 -35 -36 -84v-479h-29q-50 0 -85 -35t-35 -84q0 -50 35 -85t85 -35h29z" />
    <glyph glyph-name="Ntilde" unicode="&#xd1;" horiz-adv-x="1496" 
d="M324 35q35 35 35 85v870l806 -948q36 -42 91 -42q22 0 42 7q78 29 78 113v1196q0 49 -35 84t-85 35q-49 0 -84 -35t-35 -84v-871l-806 948q-54 64 -133 35q-78 -29 -78 -112v-1196q0 -50 35 -85t85 -35q49 0 84 35zM540 1757q35 12 51 46q8 17 26 21q17 5 72 -37
q80 -62 139 -73q19 -4 39 -4q62 0 116 33q55 34 83 90q17 33 5 68q-12 36 -45 52q-33 17 -68 5q-36 -12 -52 -45q-15 -29 -44 -23q-17 3 -64 39q-124 96 -226 69q-98 -25 -143 -117q-16 -34 -4 -69q13 -35 46 -51t69 -4z" />
    <glyph glyph-name="Ograve" unicode="&#xd2;" horiz-adv-x="1675" 
d="M1176 1056q140 -140 140 -338t-140 -338q-140 -141 -338 -141t-338 141q-141 140 -141 338t141 338q140 140 338 140t338 -140zM1345 210q210 211 210 508q0 296 -210 507q-211 210 -507 210q-297 0 -508 -210q-210 -211 -210 -507q0 -297 210 -508q211 -210 508 -210
q296 0 507 210zM768 1756q25 -46 78 -46q23 0 44 11q32 18 43 54q10 36 -8 68l-116 209q-18 32 -54 42q-36 11 -68 -8q-33 -18 -43 -53q-10 -36 8 -69z" />
    <glyph glyph-name="Oacute" unicode="&#xd3;" horiz-adv-x="1675" 
d="M1176 1056q140 -140 140 -338t-140 -338q-140 -141 -338 -141t-338 141q-141 140 -141 338t141 338q140 140 338 140t338 -140zM1345 210q210 211 210 508q0 296 -210 507q-211 210 -507 210q-297 0 -508 -210q-210 -211 -210 -507q0 -297 210 -508q211 -210 508 -210
q296 0 507 210zM829 1710q53 0 78 46l116 208q18 33 8 69q-10 35 -43 53q-32 19 -68 8q-36 -10 -54 -42l-115 -209q-18 -32 -8 -68t43 -54q20 -11 43 -11z" />
    <glyph glyph-name="Ocircumflex" unicode="&#xd4;" horiz-adv-x="1675" 
d="M1176 1056q140 -140 140 -338t-140 -338q-140 -141 -338 -141t-338 141q-141 140 -141 338t141 338q140 140 338 140t338 -140zM1345 210q210 211 210 508q0 296 -210 507q-211 210 -507 210q-297 0 -508 -210q-210 -211 -210 -507q0 -297 210 -508q211 -210 508 -210
q296 0 507 210zM671 1711q37 5 59 35l108 144l107 -144q27 -36 72 -36q30 0 54 18q30 22 35 59t-17 67l-180 239q-26 36 -71 36t-72 -36l-180 -239q-22 -30 -17 -67q6 -37 35 -59q30 -22 67 -17z" />
    <glyph glyph-name="Otilde" unicode="&#xd5;" horiz-adv-x="1675" 
d="M1176 1056q140 -140 140 -338t-140 -338q-140 -141 -338 -141t-338 141q-141 140 -141 338t141 338q140 140 338 140t338 -140zM1345 210q210 211 210 508q0 296 -210 507q-211 210 -507 210q-297 0 -508 -210q-210 -211 -210 -507q0 -297 210 -508q211 -210 508 -210
q296 0 507 210zM629 1757q35 12 51 46q9 17 26 21q18 5 72 -37q81 -62 140 -73q19 -4 39 -4q62 0 116 33q55 34 83 90q17 33 5 68q-12 36 -45 52q-33 17 -69 5q-35 -12 -52 -45q-14 -29 -43 -23q-17 3 -64 39q-124 96 -227 69q-98 -25 -142 -117q-16 -34 -4 -69t46 -51
q33 -16 68 -4z" />
    <glyph glyph-name="Odieresis" unicode="&#xd6;" horiz-adv-x="1675" 
d="M1176 1056q140 -140 140 -338t-140 -338q-140 -141 -338 -141t-338 141q-141 140 -141 338t141 338q140 140 338 140t338 -140zM1345 210q210 211 210 508q0 296 -210 507q-211 210 -507 210q-297 0 -508 -210q-210 -211 -210 -507q0 -297 210 -508q211 -210 508 -210
q296 0 507 210zM1102 1745q35 35 35 85q0 49 -35 84t-85 35q-49 0 -85 -35q-35 -35 -35 -84q0 -50 35 -85q36 -35 85 -35q50 0 85 35zM743 1745q35 35 35 85q0 49 -35 84t-85 35q-49 0 -84 -35t-35 -84q0 -50 35 -85t84 -35q50 0 85 35z" />
    <glyph glyph-name="multiply" unicode="&#xd7;" horiz-adv-x="944" 
d="M240 354q49 0 84 35l148 148l148 -148q35 -35 85 -35q49 0 84 35t35 85q0 49 -35 84l-148 148l148 148q35 35 35 85q0 49 -35 84t-84 35q-50 0 -85 -35l-148 -148l-148 148q-35 35 -84 35q-50 0 -85 -35t-35 -84q0 -50 35 -85l148 -148l-148 -148q-35 -35 -35 -84
q0 -50 35 -85t85 -35z" />
    <glyph glyph-name="Oslash" unicode="&#xd8;" horiz-adv-x="1675" 
d="M500 1056q140 140 338 140q94 0 182 -36l-556 -741q-105 131 -105 299q0 198 141 338zM1176 380q-140 -141 -338 -141q-95 0 -183 36l556 741q105 -131 105 -298q0 -198 -140 -338zM293 191q-29 -39 -22 -88t46 -79q32 -24 72 -24q60 0 96 48l24 32q154 -80 329 -80
q296 0 507 210q210 211 210 508q0 286 -197 494l24 32q30 40 23 89t-47 78q-40 30 -89 23t-78 -46l-25 -33q-154 80 -328 80q-297 0 -508 -210q-210 -211 -210 -507q0 -286 198 -494z" />
    <glyph glyph-name="Ugrave" unicode="&#xd9;" horiz-adv-x="1496" 
d="M1192 184q184 184 184 444v688q0 49 -35 84t-85 35q-49 0 -84 -35t-35 -84v-688q0 -161 -114 -275t-275 -114t-275 114t-114 275v688q0 49 -35 84t-84 35q-50 0 -85 -35t-35 -84v-688q0 -260 184 -444t444 -184t444 184zM678 1756q26 -46 79 -46q23 0 43 11q33 18 43 54
t-8 68l-116 209q-18 32 -54 42q-35 11 -68 -8q-32 -18 -42 -53q-11 -36 7 -69z" />
    <glyph glyph-name="Uacute" unicode="&#xda;" horiz-adv-x="1496" 
d="M1192 184q184 184 184 444v688q0 49 -35 84t-85 35q-49 0 -84 -35t-35 -84v-688q0 -161 -114 -275t-275 -114t-275 114t-114 275v688q0 49 -35 84t-84 35q-50 0 -85 -35t-35 -84v-688q0 -260 184 -444t444 -184t444 184zM739 1710q53 0 79 46l116 208q18 33 7 69
q-10 35 -42 53q-33 19 -69 8q-35 -10 -53 -42l-116 -209q-18 -32 -8 -68t43 -54q20 -11 43 -11z" />
    <glyph glyph-name="Ucircumflex" unicode="&#xdb;" horiz-adv-x="1496" 
d="M1192 184q184 184 184 444v688q0 49 -35 84t-85 35q-49 0 -84 -35t-35 -84v-688q0 -161 -114 -275t-275 -114t-275 114t-114 275v688q0 49 -35 84t-84 35q-50 0 -85 -35t-35 -84v-688q0 -260 184 -444t444 -184t444 184zM581 1711q37 5 59 35l108 144l108 -144
q27 -36 71 -36q30 0 54 18q30 22 35 59t-17 67l-179 239q-27 36 -72 36t-72 -36l-179 -239q-23 -30 -17 -67q5 -37 35 -59q29 -22 66 -17z" />
    <glyph glyph-name="Udieresis" unicode="&#xdc;" horiz-adv-x="1496" 
d="M1192 184q184 184 184 444v688q0 49 -35 84t-85 35q-49 0 -84 -35t-35 -84v-688q0 -161 -114 -275t-275 -114t-275 114t-114 275v688q0 49 -35 84t-84 35q-50 0 -85 -35t-35 -84v-688q0 -260 184 -444t444 -184t444 184zM1012 1745q35 35 35 85q0 49 -35 84t-85 35
q-49 0 -84 -35t-35 -84q0 -50 35 -85t84 -35q50 0 85 35zM653 1745q35 35 35 85q0 49 -35 84t-84 35q-50 0 -85 -35t-35 -84q0 -50 35 -85t85 -35q49 0 84 35z" />
    <glyph glyph-name="Yacute" unicode="&#xdd;" horiz-adv-x="1451" 
d="M606 562v-442q0 -50 35 -85t84 -35q50 0 85 35t35 85v442l458 687q28 42 18 90q-10 49 -51 76q-41 28 -90 18q-48 -10 -76 -51l-379 -568l-379 568q-27 41 -76 51q-48 10 -90 -18q-41 -27 -50 -76q-10 -48 17 -90zM717 1710q52 0 78 46l116 208q18 33 8 69q-11 35 -43 53
q-33 19 -68 8q-36 -10 -54 -42l-116 -209q-18 -32 -8 -68q11 -36 43 -54q20 -11 44 -11z" />
    <glyph glyph-name="Thorn" unicode="&#xde;" horiz-adv-x="1257" 
d="M359 508v419h329q87 0 148 -61q61 -62 61 -148q0 -87 -61 -148q-61 -62 -148 -62h-329zM359 1166v150q0 49 -35 84t-84 35q-50 0 -85 -35t-35 -84v-1196q0 -50 35 -85t85 -35q49 0 84 35t35 85v149h329q186 0 317 132q132 131 132 317q0 185 -132 317q-131 131 -317 131
h-329z" />
    <glyph glyph-name="germandbls" unicode="&#xdf;" horiz-adv-x="1332" 
d="M324 35q35 35 35 85v897q0 74 53 127q52 52 127 52h239q74 0 127 -52q52 -53 52 -127t-52 -127q-53 -53 -127 -53h-164q-50 0 -85 -35t-35 -84q0 -50 35 -85t85 -35h164q-1 0 10 0q6 0 5 0q74 0 127 -53q53 -52 53 -126q0 -75 -53 -127q-53 -53 -127 -53h-179
q-50 0 -85 -35t-35 -84q0 -50 35 -85t85 -35h179q173 0 296 123t123 296q0 182 -134 306q119 122 119 292q0 173 -123 296q-123 122 -296 122h-239q-173 0 -296 -122q-123 -123 -123 -296v-897q0 -50 35 -85t85 -35q49 0 84 35z" />
    <glyph glyph-name="agrave" unicode="&#xe0;" horiz-adv-x="1575" 
d="M787 1025l219 -486h-437zM291 8q47 18 67 63l103 228h653l102 -228q32 -71 110 -71q25 0 49 11q45 20 62 67q18 46 -2 91l-539 1196q-31 71 -109 71q-77 0 -109 -71l-538 -1196q-20 -45 -3 -91q18 -47 63 -67t91 -3zM717 1756q26 -46 79 -46q23 0 43 11q33 18 43 54
t-8 68l-116 209q-18 32 -53 42q-36 11 -69 -8q-32 -18 -42 -53q-11 -36 8 -69z" />
    <glyph glyph-name="aacute" unicode="&#xe1;" horiz-adv-x="1575" 
d="M787 1025l219 -486h-437zM291 8q47 18 67 63l103 228h653l102 -228q32 -71 110 -71q25 0 49 11q45 20 62 67q18 46 -2 91l-539 1196q-31 71 -109 71q-77 0 -109 -71l-538 -1196q-20 -45 -3 -91q18 -47 63 -67t91 -3zM779 1710q53 0 78 46l116 208q18 33 8 69
q-10 35 -43 53q-32 19 -68 8q-36 -10 -54 -42l-115 -209q-19 -32 -8 -68q10 -36 42 -54q21 -11 44 -11z" />
    <glyph glyph-name="acircumflex" unicode="&#xe2;" horiz-adv-x="1575" 
d="M787 1025l219 -486h-437zM291 8q47 18 67 63l103 228h653l102 -228q32 -71 110 -71q25 0 49 11q45 20 62 67q18 46 -2 91l-539 1196q-31 71 -109 71q-77 0 -109 -71l-538 -1196q-20 -45 -3 -91q18 -47 63 -67t91 -3zM621 1711q36 5 59 35l107 144l108 -144q27 -36 72 -36
q30 0 53 18q30 22 35 59q6 37 -17 67l-179 239q-27 36 -72 36t-72 -36l-179 -239q-22 -30 -17 -67t35 -59t67 -17z" />
    <glyph glyph-name="atilde" unicode="&#xe3;" horiz-adv-x="1575" 
d="M787 1025l219 -486h-437zM291 8q47 18 67 63l103 228h653l102 -228q32 -71 110 -71q25 0 49 11q45 20 62 67q18 46 -2 91l-539 1196q-31 71 -109 71q-77 0 -109 -71l-538 -1196q-20 -45 -3 -91q18 -47 63 -67t91 -3zM579 1757q35 12 51 46q8 17 26 21q17 5 72 -37
q80 -62 139 -73q19 -4 39 -4q62 0 116 33q55 34 83 90q17 33 5 68q-12 36 -45 52q-33 17 -68 5q-36 -12 -52 -45q-15 -29 -44 -23q-17 3 -64 39q-124 96 -226 69q-98 -25 -143 -117q-16 -34 -4 -69q13 -35 46 -51t69 -4z" />
    <glyph glyph-name="adieresis" unicode="&#xe4;" horiz-adv-x="1575" 
d="M787 1025l219 -486h-437zM291 8q47 18 67 63l103 228h653l102 -228q32 -71 110 -71q25 0 49 11q45 20 62 67q18 46 -2 91l-539 1196q-31 71 -109 71q-77 0 -109 -71l-538 -1196q-20 -45 -3 -91q18 -47 63 -67t91 -3zM1051 1745q35 35 35 85q0 49 -35 84t-85 35
q-49 0 -84 -35t-35 -84q0 -50 35 -85t84 -35q50 0 85 35zM692 1745q35 35 35 85q0 49 -35 84t-84 35q-50 0 -85 -35t-35 -84q0 -50 35 -85t85 -35q49 0 84 35z" />
    <glyph glyph-name="aring" unicode="&#xe5;" horiz-adv-x="1575" 
d="M787 1025l219 -486h-437zM291 8q47 18 67 63l103 228h653l102 -228q32 -71 110 -71q25 0 49 11q45 20 62 67q18 46 -2 91l-539 1196q-31 71 -109 71q-77 0 -109 -71l-538 -1196q-20 -45 -3 -91q18 -47 63 -67t91 -3zM837 2009q20 -21 20 -50t-20 -49q-21 -21 -50 -21
t-49 21q-21 20 -21 49t21 50q20 20 49 20t50 -20zM963 1783q73 73 73 176t-73 176t-176 73t-176 -73t-73 -176t73 -176t176 -73t176 73z" />
    <glyph glyph-name="ae" unicode="&#xe6;" horiz-adv-x="2339" 
d="M1023 538h-314l314 419v-419zM246 0q60 0 95 48l189 251h493v-179q0 -50 35 -85t85 -35h957q49 0 84 35t35 85q0 49 -35 84t-84 35h-838v359h599q49 0 84 35t35 85q0 49 -35 84t-84 35h-599v359h838q49 0 84 35t35 85q0 49 -35 84t-84 35h-958h-10q-1 0 -4 -1q-3 0 -7 -1
h-4q-3 -1 -7 -2q-3 -1 -5 -2q-5 -1 -7 -3q-1 0 -5 -1q-3 -2 -5 -3l-4 -2l-6 -4l-3 -2q-9 -6 -16 -13l-2 -2q-3 -3 -5 -6l-3 -3q-3 -4 -2 -2l-897 -1197q-30 -39 -23 -88t47 -79q32 -24 72 -24z" />
    <glyph glyph-name="ccedilla" unicode="&#xe7;" horiz-adv-x="1500" 
d="M1380 295q0 50 -35 85t-84 35q-50 0 -85 -35q-140 -140 -338 -140q-199 0 -339 140t-140 338t140 338t339 140q198 0 338 -140q35 -35 85 -35q49 0 84 35t35 85q0 49 -35 84q-210 211 -507 211q-298 0 -508 -211q-210 -210 -210 -507t210 -507q184 -185 443 -208v-122
q0 -37 26 -64q26 -26 63 -26t64 26q26 27 26 64v128q228 37 393 202q35 35 35 84z" />
    <glyph glyph-name="egrave" unicode="&#xe8;" 
d="M1197 0q49 0 84 35t35 85q0 49 -35 84t-84 35h-838v359h598q50 0 85 35t35 85q0 49 -35 84t-85 35h-598v359h838q49 0 84 35t35 85q0 49 -35 84t-84 35h-957q-50 0 -85 -35t-35 -84v-1196q0 -50 35 -85t85 -35h957zM648 1756q26 -46 79 -46q23 0 43 11q33 18 43 54t-8 68
l-116 209q-18 32 -53 42q-36 11 -69 -8q-32 -18 -42 -53q-11 -36 8 -69z" />
    <glyph glyph-name="eacute" unicode="&#xe9;" 
d="M1197 0q49 0 84 35t35 85q0 49 -35 84t-84 35h-838v359h598q50 0 85 35t35 85q0 49 -35 84t-85 35h-598v359h838q49 0 84 35t35 85q0 49 -35 84t-84 35h-957q-50 0 -85 -35t-35 -84v-1196q0 -50 35 -85t85 -35h957zM710 1710q53 0 78 46l116 208q18 33 8 69
q-10 35 -43 53q-32 19 -68 8q-36 -10 -54 -42l-115 -209q-19 -32 -8 -68q10 -36 42 -54q21 -11 44 -11z" />
    <glyph glyph-name="ecircumflex" unicode="&#xea;" 
d="M1197 0q49 0 84 35t35 85q0 49 -35 84t-84 35h-838v359h598q50 0 85 35t35 85q0 49 -35 84t-85 35h-598v359h838q49 0 84 35t35 85q0 49 -35 84t-84 35h-957q-50 0 -85 -35t-35 -84v-1196q0 -50 35 -85t85 -35h957zM552 1711q36 5 59 35l107 144l108 -144q27 -36 72 -36
q30 0 53 18q30 22 35 59q6 37 -17 67l-179 239q-27 36 -72 36t-72 -36l-179 -239q-22 -30 -17 -67t35 -59t67 -17z" />
    <glyph glyph-name="edieresis" unicode="&#xeb;" 
d="M1197 0q49 0 84 35t35 85q0 49 -35 84t-84 35h-838v359h598q50 0 85 35t35 85q0 49 -35 84t-85 35h-598v359h838q49 0 84 35t35 85q0 49 -35 84t-84 35h-957q-50 0 -85 -35t-35 -84v-1196q0 -50 35 -85t85 -35h957zM982 1745q35 35 35 85q0 49 -35 84t-85 35
q-49 0 -84 -35t-35 -84q0 -50 35 -85t84 -35q50 0 85 35zM623 1745q35 35 35 85q0 49 -35 84t-84 35q-50 0 -85 -35t-35 -84q0 -50 35 -85t85 -35q49 0 84 35z" />
    <glyph glyph-name="igrave" unicode="&#xec;" horiz-adv-x="563" 
d="M408 35q35 35 35 85v1196q0 49 -35 84t-84 35q-50 0 -85 -35t-35 -84v-1196q0 -50 35 -85t85 -35q49 0 84 35zM254 1756q26 -46 79 -46q23 0 43 11q33 18 43 54t-8 68l-116 209q-18 32 -53 42q-36 11 -69 -8q-32 -18 -42 -53q-11 -36 8 -69z" />
    <glyph glyph-name="iacute" unicode="&#xed;" horiz-adv-x="563" 
d="M324 35q35 35 35 85v1196q0 49 -35 84t-84 35q-50 0 -85 -35t-35 -84v-1196q0 -50 35 -85t85 -35q49 0 84 35zM231 1710q53 0 78 46l116 208q18 33 8 69q-10 35 -43 53q-32 19 -68 8q-36 -10 -54 -42l-115 -209q-19 -32 -8 -68q10 -36 42 -54q21 -11 44 -11z" />
    <glyph glyph-name="icircumflex" unicode="&#xee;" horiz-adv-x="787" 
d="M478 35q35 35 35 85v1196q0 49 -35 84t-84 35q-50 0 -85 -35t-35 -84v-1196q0 -50 35 -85t85 -35q49 0 84 35zM227 1711q36 5 59 35l107 144l108 -144q27 -36 72 -36q30 0 53 18q30 22 35 59q6 37 -17 67l-179 239q-27 36 -72 36t-72 -36l-179 -239q-22 -30 -17 -67
t35 -59t67 -17z" />
    <glyph glyph-name="idieresis" unicode="&#xef;" horiz-adv-x="838" 
d="M503 35q35 35 35 85v1196q0 49 -35 84t-84 35q-50 0 -85 -35t-35 -84v-1196q0 -50 35 -85t85 -35q49 0 84 35zM683 1745q35 35 35 85q0 49 -35 84t-85 35q-49 0 -84 -35t-35 -84q0 -50 35 -85t84 -35q50 0 85 35zM324 1745q35 35 35 85q0 49 -35 84t-84 35q-50 0 -85 -35
t-35 -84q0 -50 35 -85t85 -35q49 0 84 35z" />
    <glyph glyph-name="eth" unicode="&#xf0;" horiz-adv-x="1586" 
d="M509 1196h239q198 0 338 -140t140 -338t-140 -338q-140 -141 -338 -141h-239v359h388q50 0 85 35t35 85q0 49 -35 84t-85 35h-388v359zM269 598v-478q0 -50 36 -85q35 -35 84 -35h359q297 0 507 210q211 211 211 508q0 296 -211 507q-210 210 -507 210h-359
q-49 0 -84 -35q-36 -35 -36 -84v-479h-29q-50 0 -85 -35t-35 -84q0 -50 35 -85t85 -35h29z" />
    <glyph glyph-name="ntilde" unicode="&#xf1;" horiz-adv-x="1496" 
d="M324 35q35 35 35 85v870l806 -948q36 -42 91 -42q22 0 42 7q78 29 78 113v1196q0 49 -35 84t-85 35q-49 0 -84 -35t-35 -84v-871l-806 948q-54 64 -133 35q-78 -29 -78 -112v-1196q0 -50 35 -85t85 -35q49 0 84 35zM540 1757q35 12 51 46q8 17 26 21q17 5 72 -37
q80 -62 139 -73q19 -4 39 -4q62 0 116 33q55 34 83 90q17 33 5 68q-12 36 -45 52q-33 17 -68 5q-36 -12 -52 -45q-15 -29 -44 -23q-17 3 -64 39q-124 96 -226 69q-98 -25 -143 -117q-16 -34 -4 -69q13 -35 46 -51t69 -4z" />
    <glyph glyph-name="ograve" unicode="&#xf2;" horiz-adv-x="1675" 
d="M1176 1056q140 -140 140 -338t-140 -338q-140 -141 -338 -141t-338 141q-141 140 -141 338t141 338q140 140 338 140t338 -140zM1345 210q210 211 210 508q0 296 -210 507q-211 210 -507 210q-297 0 -508 -210q-210 -211 -210 -507q0 -297 210 -508q211 -210 508 -210
q296 0 507 210zM768 1756q26 -46 79 -46q23 0 43 11q33 18 43 54t-8 68l-116 209q-18 32 -53 42q-36 11 -69 -8q-32 -18 -42 -53q-11 -36 8 -69z" />
    <glyph glyph-name="oacute" unicode="&#xf3;" horiz-adv-x="1675" 
d="M1176 1056q140 -140 140 -338t-140 -338q-140 -141 -338 -141t-338 141q-141 140 -141 338t141 338q140 140 338 140t338 -140zM1345 210q210 211 210 508q0 296 -210 507q-211 210 -507 210q-297 0 -508 -210q-210 -211 -210 -507q0 -297 210 -508q211 -210 508 -210
q296 0 507 210zM829 1710q53 0 78 46l116 208q18 33 8 69q-10 35 -43 53q-32 19 -68 8q-36 -10 -54 -42l-115 -209q-19 -32 -8 -68q10 -36 42 -54q21 -11 44 -11z" />
    <glyph glyph-name="ocircumflex" unicode="&#xf4;" horiz-adv-x="1675" 
d="M1176 1056q140 -140 140 -338t-140 -338q-140 -141 -338 -141t-338 141q-141 140 -141 338t141 338q140 140 338 140t338 -140zM1345 210q210 211 210 508q0 296 -210 507q-211 210 -507 210q-297 0 -508 -210q-210 -211 -210 -507q0 -297 210 -508q211 -210 508 -210
q296 0 507 210zM671 1711q36 5 59 35l107 144l108 -144q27 -36 72 -36q30 0 53 18q30 22 35 59q6 37 -17 67l-179 239q-27 36 -72 36t-72 -36l-179 -239q-22 -30 -17 -67t35 -59t67 -17z" />
    <glyph glyph-name="otilde" unicode="&#xf5;" horiz-adv-x="1675" 
d="M1176 1056q140 -140 140 -338t-140 -338q-140 -141 -338 -141t-338 141q-141 140 -141 338t141 338q140 140 338 140t338 -140zM1345 210q210 211 210 508q0 296 -210 507q-211 210 -507 210q-297 0 -508 -210q-210 -211 -210 -507q0 -297 210 -508q211 -210 508 -210
q296 0 507 210zM630 1757q35 12 51 46q8 17 26 21q17 5 72 -37q80 -62 139 -73q19 -4 39 -4q62 0 116 33q55 34 83 90q17 33 5 68q-12 36 -45 52q-33 17 -68 5q-36 -12 -52 -45q-15 -29 -44 -23q-17 3 -64 39q-124 96 -226 69q-98 -25 -143 -117q-16 -34 -4 -69
q13 -35 46 -51t69 -4z" />
    <glyph glyph-name="odieresis" unicode="&#xf6;" horiz-adv-x="1675" 
d="M1176 1056q140 -140 140 -338t-140 -338q-140 -141 -338 -141t-338 141q-141 140 -141 338t141 338q140 140 338 140t338 -140zM1345 210q210 211 210 508q0 296 -210 507q-211 210 -507 210q-297 0 -508 -210q-210 -211 -210 -507q0 -297 210 -508q211 -210 508 -210
q296 0 507 210zM1102 1745q35 35 35 85q0 49 -35 84t-85 35q-49 0 -84 -35t-35 -84q0 -50 35 -85t84 -35q50 0 85 35zM743 1745q35 35 35 85q0 49 -35 84t-84 35q-50 0 -85 -35t-35 -84q0 -50 35 -85t85 -35q49 0 84 35z" />
    <glyph glyph-name="divide" unicode="&#xf7;" horiz-adv-x="1137" 
d="M653 929q35 35 35 85q0 49 -35 84t-84 35q-50 0 -85 -35t-35 -84q0 -50 35 -85t85 -35q49 0 84 35zM569 535q-50 0 -85 -35t-35 -84q0 -50 35 -85t85 -35q49 0 84 35t35 85q0 49 -35 84t-84 35zM897 595q50 0 85 35t35 85q0 49 -35 84t-85 35h-657q-50 0 -85 -35t-35 -84
q0 -50 35 -85t85 -35h657z" />
    <glyph glyph-name="oslash" unicode="&#xf8;" horiz-adv-x="1675" 
d="M500 1056q140 140 338 140q94 0 182 -36l-556 -741q-105 131 -105 299q0 198 141 338zM1176 380q-140 -141 -338 -141q-95 0 -183 36l556 741q105 -131 105 -298q0 -198 -140 -338zM293 191q-29 -39 -22 -88t46 -79q32 -24 72 -24q60 0 96 48l24 32q154 -80 329 -80
q296 0 507 210q210 211 210 508q0 286 -197 494l24 32q30 40 23 89t-47 78q-40 30 -89 23t-78 -46l-25 -33q-154 80 -328 80q-297 0 -508 -210q-210 -211 -210 -507q0 -286 198 -494z" />
    <glyph glyph-name="ugrave" unicode="&#xf9;" horiz-adv-x="1496" 
d="M1192 184q184 184 184 444v688q0 49 -35 84t-85 35q-49 0 -84 -35t-35 -84v-688q0 -161 -114 -275t-275 -114t-275 114t-114 275v688q0 49 -35 84t-84 35q-50 0 -85 -35t-35 -84v-688q0 -260 184 -444t444 -184t444 184zM678 1756q26 -46 79 -46q23 0 43 11q33 18 43 54
t-8 68l-116 209q-18 32 -53 42q-36 11 -69 -8q-32 -18 -42 -53q-11 -36 8 -69z" />
    <glyph glyph-name="uacute" unicode="&#xfa;" horiz-adv-x="1496" 
d="M1192 184q184 184 184 444v688q0 49 -35 84t-85 35q-49 0 -84 -35t-35 -84v-688q0 -161 -114 -275t-275 -114t-275 114t-114 275v688q0 49 -35 84t-84 35q-50 0 -85 -35t-35 -84v-688q0 -260 184 -444t444 -184t444 184zM739 1710q53 0 78 46l116 208q18 33 8 69
q-10 35 -43 53q-32 19 -68 8q-36 -10 -54 -42l-115 -209q-19 -32 -8 -68q10 -36 42 -54q21 -11 44 -11z" />
    <glyph glyph-name="ucircumflex" unicode="&#xfb;" horiz-adv-x="1496" 
d="M1192 184q184 184 184 444v688q0 49 -35 84t-85 35q-49 0 -84 -35t-35 -84v-688q0 -161 -114 -275t-275 -114t-275 114t-114 275v688q0 49 -35 84t-84 35q-50 0 -85 -35t-35 -84v-688q0 -260 184 -444t444 -184t444 184zM582 1711q36 5 59 35l107 144l108 -144
q27 -36 72 -36q30 0 53 18q30 22 35 59q6 37 -17 67l-179 239q-27 36 -72 36t-72 -36l-179 -239q-22 -30 -17 -67t35 -59t67 -17z" />
    <glyph glyph-name="udieresis" unicode="&#xfc;" horiz-adv-x="1496" 
d="M1192 184q184 184 184 444v688q0 49 -35 84t-85 35q-49 0 -84 -35t-35 -84v-688q0 -161 -114 -275t-275 -114t-275 114t-114 275v688q0 49 -35 84t-84 35q-50 0 -85 -35t-35 -84v-688q0 -260 184 -444t444 -184t444 184zM1012 1745q35 35 35 85q0 49 -35 84t-85 35
q-49 0 -84 -35t-35 -84q0 -50 35 -85t84 -35q50 0 85 35zM653 1745q35 35 35 85q0 49 -35 84t-84 35q-50 0 -85 -35t-35 -84q0 -50 35 -85t85 -35q49 0 84 35z" />
    <glyph glyph-name="yacute" unicode="&#xfd;" horiz-adv-x="1451" 
d="M606 562v-442q0 -50 35 -85t84 -35q50 0 85 35t35 85v442l458 687q28 42 18 90q-10 49 -51 76q-41 28 -90 18q-48 -10 -76 -51l-379 -568l-379 568q-27 41 -76 51q-48 10 -90 -18q-41 -27 -50 -76q-10 -48 17 -90zM717 1710q53 0 78 46l116 208q18 33 8 69q-10 35 -43 53
q-32 19 -68 8q-36 -10 -54 -42l-115 -209q-19 -32 -8 -68q10 -36 42 -54q21 -11 44 -11z" />
    <glyph glyph-name="thorn" unicode="&#xfe;" horiz-adv-x="1257" 
d="M359 508v419h329q87 0 148 -61q61 -62 61 -148q0 -87 -61 -148q-61 -62 -148 -62h-329zM359 1166v150q0 49 -35 84t-84 35q-50 0 -85 -35t-35 -84v-1196q0 -50 35 -85t85 -35q49 0 84 35t35 85v149h329q186 0 317 132q132 131 132 317q0 185 -132 317q-131 131 -317 131
h-329z" />
    <glyph glyph-name="ydieresis" unicode="&#xff;" horiz-adv-x="1451" 
d="M606 562v-442q0 -50 35 -85t84 -35q50 0 85 35t35 85v442l458 687q28 42 18 90q-10 49 -51 76q-41 28 -90 18q-48 -10 -76 -51l-379 -568l-379 568q-27 41 -76 51q-48 10 -90 -18q-41 -27 -50 -76q-10 -48 17 -90zM989 1745q35 35 35 85q0 49 -35 84t-85 35
q-49 0 -84 -35t-35 -84q0 -50 35 -85t84 -35q50 0 85 35zM630 1745q35 35 35 85q0 49 -35 84t-84 35q-50 0 -85 -35t-35 -84q0 -50 35 -85t85 -35q49 0 84 35z" />
    <glyph glyph-name="dotlessi" unicode="&#x131;" horiz-adv-x="479" 
d="M324 35q35 35 35 85v1196q0 49 -35 84t-84 35q-50 0 -85 -35t-35 -84v-1196q0 -50 35 -85t85 -35q49 0 84 35z" />
    <glyph glyph-name="circumflex" unicode="&#x2c6;" horiz-adv-x="787" 
d="M227 1711q36 5 59 35l107 144l108 -144q27 -36 72 -36q30 0 53 18q30 22 35 59q6 37 -17 67l-179 239q-27 36 -72 36t-72 -36l-179 -239q-22 -30 -17 -67t35 -59t67 -17z" />
    <glyph glyph-name="ring" unicode="&#x2da;" horiz-adv-x="738" 
d="M419 2009q20 -21 20 -50t-20 -49q-21 -21 -50 -21t-49 21q-21 20 -21 49t21 50q20 20 49 20t50 -20zM545 1783q73 73 73 176t-73 176t-176 73t-176 -73t-73 -176t73 -176t176 -73t176 73z" />
    <glyph glyph-name="tilde" unicode="&#x2dc;" horiz-adv-x="910" 
d="M247 1757q35 12 51 46q8 17 26 21q17 5 72 -37q80 -62 139 -73q19 -4 39 -4q62 0 116 33q55 34 83 90q17 33 5 68q-12 36 -45 52q-33 17 -68 5q-36 -12 -52 -45q-15 -29 -44 -23q-17 3 -64 39q-124 96 -226 69q-98 -25 -143 -117q-16 -34 -4 -69q13 -35 46 -51t69 -4z
" />
    <glyph glyph-name="quoteleft" unicode="&#x2018;" horiz-adv-x="420" 
d="M273 1041q27 27 27 64v239q0 37 -27 63q-26 27 -63 27t-64 -27q-26 -26 -26 -63v-239q0 -37 26 -64q27 -26 64 -26t63 26z" />
    <glyph glyph-name="quoteright" unicode="&#x2019;" horiz-adv-x="420" 
d="M273 1041q27 27 27 64v239q0 37 -27 63q-26 27 -63 27t-64 -27q-26 -26 -26 -63v-239q0 -37 26 -64q27 -26 64 -26t63 26z" />
    <glyph glyph-name="quotedblleft" unicode="&#x201c;" horiz-adv-x="645" 
d="M273 1041q26 27 26 64v239q0 37 -26 63q-26 27 -63 27t-64 -27q-26 -26 -26 -63v-239q0 -37 26 -64q27 -26 64 -26t63 26zM498 1041q27 27 27 64v239q0 37 -27 63q-26 27 -63 27t-64 -27q-26 -26 -26 -63v-239q0 -37 26 -64q27 -26 64 -26t63 26z" />
    <glyph glyph-name="quotedblright" unicode="&#x201d;" horiz-adv-x="645" 
d="M273 1041q26 27 26 64v239q0 37 -26 63q-26 27 -63 27t-64 -27q-26 -26 -26 -63v-239q0 -37 26 -64q27 -26 64 -26t63 26zM498 1041q27 27 27 64v239q0 37 -27 63q-26 27 -63 27t-64 -27q-26 -26 -26 -63v-239q0 -37 26 -64q27 -26 64 -26t63 26z" />
    <glyph glyph-name="guilsinglleft" unicode="&#x2039;" horiz-adv-x="898" 
d="M574 212q35 -35 84 -35q50 0 85 35t35 85q0 49 -35 84l-334 334l334 334q35 35 35 85q0 49 -35 84q-35 36 -85 36q-49 0 -84 -36l-419 -418q-35 -35 -35 -85q0 -49 35 -84z" />
    <glyph glyph-name="guilsinglright" unicode="&#x203a;" horiz-adv-x="898" 
d="M240 177q49 0 84 35l419 419q35 35 35 84q0 50 -35 85l-419 418q-35 36 -84 36q-50 0 -85 -36q-35 -35 -35 -84q0 -50 35 -85l334 -334l-334 -334q-35 -35 -35 -84q0 -50 35 -85t85 -35z" />
    <glyph glyph-name="Euro" unicode="&#x20ac;" horiz-adv-x="1616" 
d="M155 454q35 -35 85 -35h60q54 -117 146 -209q210 -210 507 -210t508 210q35 35 35 85q0 49 -35 84q-36 35 -85 35q-50 0 -85 -35q-140 -140 -338 -140t-338 140q-18 18 -35 40h258q49 0 84 35t35 84q0 50 -35 85t-84 35h-360q-3 31 -3 60t3 59h360q49 0 84 36
q35 35 35 84q0 50 -35 85t-84 35h-258q17 21 35 39q140 140 338 140t338 -140q35 -35 85 -35q49 0 85 35q35 35 35 85q0 49 -35 84q-211 210 -508 210t-507 -210q-92 -92 -146 -208h-60q-50 0 -85 -35t-35 -85q0 -49 34 -84q35 -35 84 -35q-3 -31 -3 -60q0 -30 3 -60
q-49 -1 -84 -36q-34 -35 -34 -84t35 -84z" />
    <glyph glyph-name="minus" unicode="&#x2212;" horiz-adv-x="1137" 
d="M897 595q50 0 85 35t35 85q0 49 -35 84t-85 35h-657q-50 0 -85 -35t-35 -84q0 -50 35 -85t85 -35h657z" />
    <glyph glyph-name="uniF001" unicode="&#xf001;" horiz-adv-x="1073" 
 />
    <glyph glyph-name="uniF001" unicode="&#xfb01;" horiz-adv-x="1073" 
 />
    <glyph glyph-name="uniF002" unicode="&#xf002;" horiz-adv-x="1081" 
 />
    <glyph glyph-name="uniF002" unicode="&#xfb02;" horiz-adv-x="1081" 
 />
    </font>
</defs>
</svg>
